<?xml version="1.0" encoding="UTF-8"?>
<svg height="16px" viewBox="0 0 16 16" width="16px" xmlns="http://www.w3.org/2000/svg">
    <g fill="#2e3436">
        <path d="m 8.90625 4 c 0 -0.550781 0.445312 -1 1 -1 c 0.550781 0 1 0.449219 1 1 s -0.449219 1 -1 1 c -0.554688 0 -1 -0.449219 -1 -1 z m 0 0"/>
        <path d="m 5.941406 4 c 0 -0.550781 0.445313 -1 1 -1 c 0.550782 0 1 0.449219 1 1 s -0.449218 1 -1 1 c -0.554687 0 -1 -0.449219 -1 -1 z m 0 0"/>
        <path d="m 2.933594 4 c 0 -0.550781 0.449218 -1 1 -1 c 0.554687 0 1 0.449219 1 1 s -0.445313 1 -1 1 c -0.550782 0 -1 -0.449219 -1 -1 z m 0 0"/>
        <path d="m 2.988281 0 c -1.644531 0 -2.9999998 1.355469 -2.9999998 3 v 2 c 0 1.644531 1.3554688 3 2.9999998 3 h 8 c 0.4375 0 0.511719 -0.074219 0.886719 -0.246094 c -0.082031 -0.0625 -0.15625 -0.132812 -0.21875 -0.21875 c 0 -0.542968 0.890625 -1.386718 1.4375 -1.386718 c 0.136719 0.085937 0.253906 0.203124 0.339844 0.339843 c 0.410156 -0.511719 0.554687 -0.785156 0.554687 -1.488281 v -2 c 0 -1.644531 -1.355469 -3 -3 -3 z m 0 2 h 8 c 0.570313 0 1 0.429688 1 1 v 2 c 0 0.570312 -0.429687 1 -1 1 h -8 c -0.570312 0 -1 -0.429688 -1 -1 v -2 c 0 -0.570312 0.429688 -1 1 -1 z m 0 0"/>
        <path d="m 12.988281 6.527344 c 0.542969 0 0.984375 0.445312 0.984375 0.988281 c 0 0.539063 -0.441406 0.984375 -0.984375 0.984375 s -0.984375 -0.445312 -0.984375 -0.984375 c 0 -0.542969 0.441406 -0.988281 0.984375 -0.988281 z m 0 2.972656 c 1.097657 0 1.984375 -0.886719 1.984375 -1.984375 c 0 -1.101563 -0.886718 -1.988281 -1.984375 -1.988281 c -1.097656 0 -1.984375 0.886718 -1.984375 1.988281 c 0 1.097656 0.886719 1.984375 1.984375 1.984375 z m 0 0"/>
        <path d="m 12.980469 9 v 2 c 0 1.648438 -1.34375 2.992188 -2.992188 2.992188 h -7 c -0.546875 0 -0.996093 -0.445313 -0.996093 -0.992188 c 0 -0.550781 0.449218 -0.996094 0.996093 -1 l 8.984375 -0.011719 c 1.101563 0.003907 1.996094 -0.882812 2 -1.984375 l -1 -0.003906 c -0.003906 0.546875 -0.453125 0.992188 -1 0.988281 l -8.984375 0.015625 c -1.105469 0 -1.996093 0.890625 -1.996093 1.996094 c 0 1.101562 0.890624 1.992188 1.996093 1.992188 h 7 c 2.207031 0 3.992188 -1.785157 3.992188 -3.992188 v -2 z m 0 0"/>
    </g>
</svg>
