<?xml version="1.0" encoding="UTF-8"?>
<svg height="16px" viewBox="0 0 16 16" width="16px" xmlns="http://www.w3.org/2000/svg">
    <g fill="#2e3436">
        <path d="m 5 14 c -1.105469 0 -2 0.894531 -2 2 h 10 c 0 -1.105469 -0.894531 -2 -2 -2 z m 0 0"/>
        <path d="m 6 0 h -2.9375 c -1.695312 0 -3.0625 1.367188 -3.0625 3.0625 v 6.875 c 0 1.695312 1.367188 3.0625 3.0625 3.0625 h 9.875 c 1.695312 0 3.0625 -1.367188 3.0625 -3.0625 v -6.875 c 0 -1.695312 -1.367188 -3.0625 -3.0625 -3.0625 h -0.9375 c -0.550781 0 -1 0.449219 -1 1 s 0.449219 1 1 1 h 0.9375 c 0.589844 0 1.0625 0.472656 1.0625 1.0625 v 6.875 c 0 0.589844 -0.472656 1.0625 -1.0625 1.0625 h -9.875 c -0.589844 0 -1.0625 -0.472656 -1.0625 -1.0625 v -6.875 c 0 -0.589844 0.472656 -1.0625 1.0625 -1.0625 h 2.9375 c 0.550781 0 1 -0.449219 1 -1 s -0.449219 -1 -1 -1 z m 0 0"/>
        <path d="m 10.484375 6 v -3.484375 c 0 -0.28125 0.234375 -0.515625 0.515625 -0.515625 h 1.007812 v -2 h -1.007812 c -1.394531 0 -2.515625 1.121094 -2.515625 2.515625 v 3.484375 z m 0 0"/>
        <path d="m 9 4 h 1 c 1.105469 0 2 0.894531 2 2 v 2 c 0 1.105469 -0.894531 2 -2 2 h -1 c -1.105469 0 -2 -0.894531 -2 -2 v -2 c 0 -1.105469 0.894531 -2 2 -2 z m 0 0"/>
    </g>
</svg>
