<?xml version="1.0" encoding="UTF-8"?>
<svg xmlns="http://www.w3.org/2000/svg" xmlns:xlink="http://www.w3.org/1999/xlink" width="16px" height="16px" viewBox="0 0 16 16" version="1.1">
<g id="surface2247">
<path style=" stroke:none;fill-rule:nonzero;fill:rgb(18.039216%,20.392157%,21.176471%);fill-opacity:1;" d="M 5.019531 15 L 5.019531 12 C 5.019531 11.449219 4.574219 11 4.019531 11 C 3.46875 11 3.019531 11.449219 3.019531 12 L 3.019531 15 C 3.019531 15.550781 3.46875 16 4.019531 16 C 4.574219 16 5.019531 15.550781 5.019531 15 Z M 9 15 L 9 12 C 9 11.449219 8.550781 11 8 11 C 7.449219 11 7 11.449219 7 12 L 7 15 C 7 15.550781 7.449219 16 8 16 C 8.550781 16 9 15.550781 9 15 Z M 13 15 L 13 12 C 13 11.449219 12.550781 11 12 11 C 11.449219 11 11 11.449219 11 12 L 11 15 C 11 15.550781 11.449219 16 12 16 C 12.550781 16 13 15.550781 13 15 Z M 13 15 "/>
<path style=" stroke:none;fill-rule:nonzero;fill:rgb(18.039216%,20.392157%,21.176471%);fill-opacity:1;" d="M 5.035156 4.015625 L 5.035156 2 C 5.035156 1.449219 4.585938 1 4.035156 1 C 3.484375 1 3.035156 1.449219 3.035156 2 L 3.035156 4.015625 C 3.035156 4.566406 3.484375 5.015625 4.035156 5.015625 C 4.585938 5.015625 5.035156 4.566406 5.035156 4.015625 Z M 9.015625 4.015625 L 9.015625 2 C 9.015625 1.449219 8.566406 1 8.015625 1 C 7.460938 1 7.015625 1.449219 7.015625 2 L 7.015625 4.015625 C 7.015625 4.566406 7.460938 5.015625 8.015625 5.015625 C 8.566406 5.015625 9.015625 4.566406 9.015625 4.015625 Z M 13.015625 4.015625 L 13.015625 2 C 13.015625 1.449219 12.566406 1 12.015625 1 C 11.460938 1 11.015625 1.449219 11.015625 2 L 11.015625 4.015625 C 11.015625 4.566406 11.460938 5.015625 12.015625 5.015625 C 12.566406 5.015625 13.015625 4.566406 13.015625 4.015625 Z M 13.015625 4.015625 "/>
<path style=" stroke:none;fill-rule:nonzero;fill:rgb(18.039216%,20.392157%,21.176471%);fill-opacity:1;" d="M 11.691406 5 C 12.417969 5 13 5.582031 13 6.308594 L 13 10.691406 C 13 11.417969 12.417969 12 11.691406 12 L 4.308594 12 C 3.582031 12 3 11.417969 3 10.691406 L 3 6.308594 C 3 5.582031 3.582031 5 4.308594 5 Z M 1 6.308594 L 1 10.691406 C 1 12.523438 2.476562 14 4.308594 14 L 11.691406 14 C 13.523438 14 15 12.523438 15 10.691406 L 15 6.308594 C 15 4.476562 13.523438 3 11.691406 3 L 4.308594 3 C 2.476562 3 1 4.476562 1 6.308594 Z M 1 6.308594 "/>
<path style=" stroke:none;fill-rule:nonzero;fill:rgb(18.039216%,20.392157%,21.176471%);fill-opacity:1;" d="M 3 10 C 3 10.546875 3.46875 11 4.019531 11 L 12 11 C 12.59375 11 13 10.484375 13 10 L 14 10 L 14 10.933594 L 12 12.980469 L 4 13 L 2 10.695312 L 2 10 Z M 3 10 "/>
</g>
</svg>
