<?xml version="1.0" encoding="UTF-8"?>
<svg height="16px" viewBox="0 0 16 16" width="16px" xmlns="http://www.w3.org/2000/svg">
    <g fill="#2e3436">
        <path d="m 3.058594 9 c -1.105469 0 -2 -0.894531 -2 -2 v -1 h 13.960937 v 1 c 0 1.105469 -0.894531 2 -2 2 z m 0 0"/>
        <path d="m 4 7 v -4 c 0 -0.546875 0.453125 -1 1 -1 h 6 c 0.546875 0 1 0.453125 1 1 v 4 h 2 v -4 c 0 -1.660156 -1.339844 -3 -3 -3 h -6 c -1.660156 0 -3 1.339844 -3 3 v 4 z m 0 0"/>
        <path d="m 1 14 c -0.554688 0 -1 0.445312 -1 1 s 0.445312 1 1 1 h 6 l -2 -2 z m 10 0 l -2 2 h 6 c 0.554688 0 1 -0.445312 1 -1 s -0.445312 -1 -1 -1 z m 0 0"/>
        <path d="m 8 15 l -3 -3 h 6 z m 0 0"/>
        <path d="m 7.5 10 h 1 c 0.277344 0 0.5 0.222656 0.5 0.5 v 2 c 0 0.277344 -0.222656 0.5 -0.5 0.5 h -1 c -0.277344 0 -0.5 -0.222656 -0.5 -0.5 v -2 c 0 -0.277344 0.222656 -0.5 0.5 -0.5 z m 0 0"/>
    </g>
</svg>
