<?xml version="1.0" encoding="UTF-8"?>
<svg xmlns="http://www.w3.org/2000/svg" xmlns:xlink="http://www.w3.org/1999/xlink" width="16px" height="16px" viewBox="0 0 16 16" version="1.1">
<g id="surface2407">
<path style=" stroke:none;fill-rule:nonzero;fill:rgb(18.039216%,20.392157%,21.176471%);fill-opacity:1;" d="M 0 0 L 0 2 L 0.0859375 2 C 0.585938 2 1 2.414062 1 2.914062 L 1 16 L 3 16 L 3 13.992188 L 4 13.992188 C 4 15.101562 4.890625 15.992188 6 15.992188 L 11 15.992188 C 12.109375 15.992188 13 15.101562 13 13.992188 C 14.660156 13.992188 16 12.652344 16 10.992188 L 16 2.953125 C 16 1.289062 14.660156 0.0117188 13 0.0195312 Z M 3 1.96875 L 13 1.96875 C 13.546875 1.96875 14 2.421875 14 2.96875 L 14 10.992188 C 14 11.539062 13.546875 11.992188 13 11.992188 L 11 11.992188 L 11 13.992188 L 10 13.992188 L 10 13.007812 L 9 13.007812 L 9 13.992188 L 8 13.992188 L 8 13.007812 L 7 13.007812 L 7 13.992188 L 6 13.992188 L 6 11.992188 L 3 11.992188 Z M 3 1.96875 "/>
<path style=" stroke:none;fill-rule:nonzero;fill:rgb(18.039216%,20.392157%,21.176471%);fill-opacity:1;" d="M 8.5 2.972656 C 6.019531 2.972656 4 4.992188 4 7.472656 C 4 9.953125 6.019531 11.972656 8.5 11.972656 C 10.980469 11.972656 13 9.953125 13 7.472656 C 13 4.992188 10.980469 2.972656 8.5 2.972656 Z M 8.5 3.972656 C 10.441406 3.972656 12 5.535156 12 7.472656 C 12 9.414062 10.441406 10.972656 8.5 10.972656 C 6.5625 10.972656 5 9.414062 5 7.472656 C 5 5.535156 6.5625 3.972656 8.5 3.972656 Z M 8.5 3.972656 "/>
<path style=" stroke:none;fill-rule:nonzero;fill:rgb(18.039216%,20.392157%,21.176471%);fill-opacity:1;" d="M 8.5 5.972656 C 7.679688 5.972656 7 6.652344 7 7.472656 C 7 8.296875 7.679688 8.972656 8.5 8.972656 C 9.324219 8.972656 10 8.296875 10 7.472656 C 10 6.652344 9.324219 5.972656 8.5 5.972656 Z M 8.5 6.972656 C 8.78125 6.972656 9 7.191406 9 7.472656 C 9 7.753906 8.78125 7.972656 8.5 7.972656 C 8.21875 7.972656 8 7.753906 8 7.472656 C 8 7.191406 8.21875 6.972656 8.5 6.972656 Z M 8.5 6.972656 "/>
<path style=" stroke:none;fill-rule:nonzero;fill:rgb(18.039216%,20.392157%,21.176471%);fill-opacity:1;" d="M 11.4375 6.972656 C 11.160156 6.972656 10.9375 7.195312 10.9375 7.472656 C 10.9375 7.75 11.160156 7.972656 11.4375 7.972656 L 12.472656 7.972656 C 12.75 7.972656 12.972656 7.75 12.972656 7.472656 C 12.972656 7.195312 12.75 6.972656 12.472656 6.972656 Z M 11.4375 6.972656 "/>
<path style=" stroke:none;fill-rule:nonzero;fill:rgb(18.039216%,20.392157%,21.176471%);fill-opacity:1;" d="M 4.527344 6.972656 C 4.25 6.972656 4.027344 7.195312 4.027344 7.472656 C 4.027344 7.75 4.25 7.972656 4.527344 7.972656 L 5.5625 7.972656 C 5.839844 7.972656 6.0625 7.75 6.0625 7.472656 C 6.0625 7.195312 5.839844 6.972656 5.5625 6.972656 Z M 4.527344 6.972656 "/>
<path style=" stroke:none;fill-rule:nonzero;fill:rgb(18.039216%,20.392157%,21.176471%);fill-opacity:1;" d="M 8.5 3 C 8.222656 3 8 3.222656 8 3.5 L 8 4.535156 C 8 4.8125 8.222656 5.035156 8.5 5.035156 C 8.777344 5.035156 9 4.8125 9 4.535156 L 9 3.5 C 9 3.222656 8.777344 3 8.5 3 Z M 8.5 3 "/>
<path style=" stroke:none;fill-rule:nonzero;fill:rgb(18.039216%,20.392157%,21.176471%);fill-opacity:1;" d="M 8.5 9.910156 C 8.222656 9.910156 8 10.132812 8 10.410156 L 8 11.445312 C 8 11.722656 8.222656 11.945312 8.5 11.945312 C 8.777344 11.945312 9 11.722656 9 11.445312 L 9 10.410156 C 9 10.132812 8.777344 9.910156 8.5 9.910156 Z M 8.5 9.910156 "/>
<path style=" stroke:none;fill-rule:nonzero;fill:rgb(18.039216%,20.392157%,21.176471%);fill-opacity:1;" d="M 5.691406 4.164062 C 5.558594 4.164062 5.429688 4.21875 5.335938 4.3125 C 5.140625 4.507812 5.140625 4.824219 5.335938 5.019531 L 6.070312 5.75 C 6.265625 5.945312 6.582031 5.945312 6.777344 5.75 C 6.972656 5.554688 6.972656 5.238281 6.777344 5.042969 L 6.042969 4.3125 C 5.949219 4.21875 5.824219 4.164062 5.691406 4.164062 Z M 5.691406 4.164062 "/>
<path style=" stroke:none;fill-rule:nonzero;fill:rgb(18.039216%,20.392157%,21.176471%);fill-opacity:1;" d="M 10.578125 9.050781 C 10.445312 9.050781 10.316406 9.105469 10.222656 9.199219 C 10.027344 9.394531 10.027344 9.710938 10.222656 9.90625 L 10.957031 10.636719 C 11.152344 10.832031 11.46875 10.832031 11.664062 10.636719 C 11.757812 10.542969 11.808594 10.414062 11.808594 10.28125 C 11.808594 10.148438 11.757812 10.023438 11.664062 9.929688 L 10.929688 9.199219 C 10.835938 9.105469 10.710938 9.050781 10.578125 9.050781 Z M 10.578125 9.050781 "/>
<path style=" stroke:none;fill-rule:nonzero;fill:rgb(18.039216%,20.392157%,21.176471%);fill-opacity:1;" d="M 6.421875 9.050781 C 6.289062 9.050781 6.164062 9.105469 6.070312 9.199219 L 5.335938 9.929688 C 5.242188 10.023438 5.1875 10.148438 5.1875 10.28125 C 5.1875 10.414062 5.242188 10.542969 5.335938 10.636719 C 5.53125 10.832031 5.847656 10.832031 6.042969 10.636719 L 6.777344 9.90625 C 6.972656 9.710938 6.972656 9.394531 6.777344 9.199219 C 6.683594 9.105469 6.554688 9.050781 6.421875 9.050781 Z M 6.421875 9.050781 "/>
<path style=" stroke:none;fill-rule:nonzero;fill:rgb(18.039216%,20.392157%,21.176471%);fill-opacity:1;" d="M 11.308594 4.164062 C 11.175781 4.164062 11.050781 4.21875 10.957031 4.3125 L 10.222656 5.042969 C 10.027344 5.238281 10.027344 5.554688 10.222656 5.75 C 10.417969 5.945312 10.734375 5.945312 10.929688 5.75 L 11.664062 5.019531 C 11.859375 4.824219 11.859375 4.507812 11.664062 4.3125 C 11.570312 4.21875 11.441406 4.164062 11.308594 4.164062 Z M 11.308594 4.164062 "/>
</g>
</svg>
