<?xml version="1.0" encoding="UTF-8"?>
<svg xmlns="http://www.w3.org/2000/svg" xmlns:xlink="http://www.w3.org/1999/xlink" width="16px" height="16px" viewBox="0 0 16 16" version="1.1">
<g id="surface4425">
<path style=" stroke:none;fill-rule:nonzero;fill:rgb(18.039216%,20.392157%,21.176471%);fill-opacity:1;" d="M 6.023438 12 C 5.75 12 5.488281 12.109375 5.296875 12.300781 C 5.101562 12.496094 4.992188 12.757812 4.992188 13.027344 L 4.992188 15.5 C 4.992188 15.777344 5.21875 16 5.492188 16 L 10.492188 16 C 10.769531 16 10.992188 15.777344 10.992188 15.5 L 10.992188 13.027344 C 10.996094 12.757812 10.886719 12.496094 10.691406 12.300781 C 10.5 12.109375 10.238281 12 9.964844 12 Z M 5.992188 14 L 6.992188 14 L 6.992188 15 L 5.992188 15 Z M 8.992188 14 L 9.992188 14 L 9.992188 15 L 8.992188 15 Z M 8.992188 14 "/>
<path style=" stroke:none;fill-rule:nonzero;fill:rgb(18.039216%,20.392157%,21.176471%);fill-opacity:1;" d="M 10.992188 13 L 4.992188 13 C 4.441406 13 3.992188 12.550781 3.992188 12 C 3.992188 10.328125 5.351562 8.972656 7.023438 8.972656 L 8.964844 8.972656 C 10.636719 8.972656 11.992188 10.328125 11.992188 12 C 11.992188 12.550781 11.546875 13 10.992188 13 Z M 10.992188 13 "/>
<path style=" stroke:none;fill-rule:nonzero;fill:rgb(18.039216%,20.392157%,21.176471%);fill-opacity:1;" d="M 8 0 C 5.382812 0 2.761719 0.933594 0.808594 2.804688 L 0.308594 3.285156 C -0.0898438 3.667969 -0.101562 4.300781 0.277344 4.699219 C 0.660156 5.097656 1.292969 5.109375 1.691406 4.726562 L 2.191406 4.253906 C 5.28125 1.296875 10.722656 1.296875 13.808594 4.25 L 14.308594 4.726562 C 14.707031 5.109375 15.339844 5.097656 15.722656 4.699219 C 16.105469 4.300781 16.089844 3.667969 15.691406 3.285156 L 15.195312 2.804688 C 13.238281 0.933594 10.617188 0 8 0 Z M 7.96875 4.007812 C 6.398438 4.019531 4.84375 4.636719 3.761719 5.820312 L 3.261719 6.367188 C 2.886719 6.777344 2.917969 7.414062 3.328125 7.785156 C 3.734375 8.15625 4.371094 8.125 4.742188 7.714844 L 5.238281 7.167969 C 6.515625 5.765625 9.398438 5.671875 10.761719 7.167969 L 11.261719 7.714844 C 11.632812 8.125 12.265625 8.15625 12.675781 7.785156 C 13.082031 7.414062 13.113281 6.777344 12.738281 6.371094 L 12.238281 5.820312 C 11.117188 4.589844 9.535156 3.996094 7.96875 4.007812 Z M 7.96875 4.007812 "/>
</g>
</svg>
