<?xml version="1.0" encoding="UTF-8"?>
<svg xmlns="http://www.w3.org/2000/svg" xmlns:xlink="http://www.w3.org/1999/xlink" width="16px" height="16px" viewBox="0 0 16 16" version="1.1">
<g id="surface3010">
<path style=" stroke:none;fill-rule:nonzero;fill:rgb(18.039216%,20.392157%,21.176471%);fill-opacity:1;" d="M 14 9 L 14 7.5 C 14 6.117188 12.882812 5 11.5 5 L 3.523438 5 C 2.960938 5 2.5 4.539062 2.5 3.984375 C 2.507812 3.433594 2.964844 2.992188 3.523438 3 L 10 3 L 10 2 L 3.53125 2 C 2.425781 1.984375 1.515625 2.863281 1.5 3.976562 C 1.5 5.097656 2.402344 6 3.523438 6 L 11.5 6 C 12.324219 6 13 6.675781 13 7.5 L 13 9 Z M 14 9 "/>
<path style=" stroke:none;fill-rule:nonzero;fill:rgb(18.039216%,20.392157%,21.176471%);fill-opacity:1;" d="M 13 16 C 14.109375 16 15 15.109375 15 14 L 15 9 C 15 7.890625 14.109375 7 13 7 L 3 7 C 1.890625 7 1 7.890625 1 9 L 1 14 C 1 15.109375 1.890625 16 3 16 Z M 13 14 L 9 14 L 9 12 L 13 12 Z M 7 14 L 3 14 L 3 12 L 7 12 Z M 13 11 L 9 11 L 9 9 L 13 9 Z M 7 11 L 3 11 L 3 9 L 7 9 Z M 7 11 "/>
<path style=" stroke:none;fill-rule:nonzero;fill:rgb(18.039216%,20.392157%,21.176471%);fill-opacity:1;" d="M 11 4 L 9 4 C 7.894531 4 7 3.105469 7 2 C 7 0.894531 7.894531 0 9 0 L 11 0 Z M 11 4 "/>
<path style=" stroke:none;fill-rule:nonzero;fill:rgb(18.039216%,20.392157%,21.176471%);fill-opacity:1;" d="M 13 3 L 11 3 L 11 1 L 13 1 Z M 13 3 "/>
</g>
</svg>
